/* XPM */
static char *_576760816520[] = {
/* columns rows colors chars-per-pixel */
"60 60 238 2 ",
"   c #000001",
".  c #0B0200",
"X  c #050903",
"o  c #0B0A01",
"O  c #01020A",
"+  c #02090D",
"@  c #0A060A",
"#  c #130300",
"$  c #130B01",
"%  c #1A0C00",
"&  c #1A0700",
"*  c #121400",
"=  c #1D1201",
"-  c #1C1A01",
";  c #010212",
":  c #040B15",
">  c #241400",
",  c #231A00",
"<  c #2E1B02",
"1  c #311C04",
"2  c #301400",
"3  c #1E2400",
"4  c #2E2100",
"5  c #29260B",
"6  c #322400",
"7  c #32240B",
"8  c #3A2807",
"9  c #363000",
"0  c #3D2A1A",
"q  c #3A3418",
"w  c #3C3A23",
"e  c #452E00",
"r  c #433300",
"t  c #473705",
"y  c #5B3D03",
"u  c #453816",
"i  c #513C1F",
"p  c #473B23",
"a  c #3F461D",
"s  c #4A440D",
"d  c #4C491D",
"f  c #584213",
"g  c #51470C",
"h  c #654A0C",
"j  c #6F590E",
"k  c #705F0F",
"l  c #624718",
"z  c #63501A",
"x  c #6D5718",
"c  c #6F6117",
"v  c #7F6C12",
"b  c #7E6A0B",
"n  c #494926",
"m  c #5B4928",
"M  c #594825",
"N  c #4C522E",
"B  c #614B2B",
"V  c #604E26",
"C  c #685627",
"Z  c #725B29",
"A  c #6A5832",
"S  c #725837",
"D  c #7A6729",
"F  c #736136",
"G  c #7D6C35",
"H  c #7B6B3D",
"J  c #7B6738",
"K  c #717037",
"L  c #6E6A3D",
"P  c #786744",
"I  c #7B6A50",
"U  c #8C6B1C",
"Y  c #966C16",
"T  c #8A741A",
"R  c #83721A",
"E  c #95741C",
"W  c #9B741A",
"Q  c #9C7B1B",
"!  c #987715",
"~  c #94750B",
"^  c #A4730E",
"/  c #A07A11",
"(  c #A1761B",
")  c #A37719",
"_  c #AA720C",
"`  c #8A6C28",
"'  c #936D27",
"]  c #8B752C",
"[  c #8B7726",
"{  c #967424",
"}  c #9C7422",
"|  c #9B7A24",
" . c #93752C",
".. c #95792D",
"X. c #9C7A2C",
"o. c #997527",
"O. c #866939",
"+. c #887637",
"@. c #947634",
"#. c #9D7735",
"$. c #947B35",
"%. c #9B7B32",
"&. c #93743E",
"*. c #937B3B",
"=. c #9C7D3B",
"-. c #9D763D",
";. c #A37C22",
":. c #A07C29",
">. c #A97D27",
",. c #A07D39",
"<. c #896C41",
"1. c #836B44",
"2. c #897543",
"3. c #937C42",
"4. c #927748",
"5. c #927B53",
"6. c #887650",
"7. c #7B8259",
"8. c #9F871B",
"9. c #AB821E",
"0. c #A5861A",
"q. c #B6851E",
"w. c #95812E",
"e. c #9B823C",
"r. c #958337",
"t. c #AB8323",
"y. c #A88928",
"u. c #B68C25",
"i. c #B58825",
"p. c #BD9729",
"a. c #AC8A35",
"s. c #A78736",
"d. c #AE9038",
"f. c #B69C34",
"g. c #BC9839",
"h. c #B28D34",
"j. c #BCA338",
"k. c #D1A01F",
"l. c #C4962C",
"z. c #D19F24",
"x. c #C39232",
"c. c #C29B34",
"v. c #CD9C34",
"b. c #C99638",
"n. c #D59C38",
"m. c #C98F2C",
"M. c #DDA928",
"N. c #CCA736",
"B. c #D2A931",
"V. c #D6AB3D",
"C. c #DCAD3C",
"Z. c #D6A638",
"A. c #CBB03F",
"S. c #DEB43D",
"D. c #DFBC3C",
"F. c #D2A92D",
"G. c #E7A627",
"H. c #E2AF3C",
"J. c #E6A833",
"K. c #E4B435",
"L. c #E9B333",
"P. c #EDB935",
"I. c #E3B43D",
"U. c #EEB53C",
"Y. c #E5BA3D",
"T. c #E9BD3E",
"R. c #F5BB3E",
"E. c #F3B638",
"W. c #F4C03E",
"Q. c #FDC33B",
"!. c #80804A",
"~. c #948141",
"^. c #988644",
"/. c #A58745",
"(. c #AE984F",
"). c #B69347",
"_. c #B79750",
"`. c #B28D4C",
"'. c #BAA25A",
"]. c #BFA546",
"[. c #B99E69",
"{. c #C69C51",
"}. c #C3A244",
"|. c #CAA444",
" X c #CBA34C",
".X c #CEAC4B",
"XX c #D4AB42",
"oX c #DBAC42",
"OX c #DCAD4A",
"+X c #D5A848",
"@X c #DBB444",
"#X c #DAB34E",
"$X c #D8B74A",
"%X c #C9A657",
"&X c #D4AE58",
"*X c #D9AD57",
"=X c #DDB756",
"-X c #DCBA52",
";X c #DBB657",
":X c #CFB558",
">X c #E1A946",
",X c #E3B343",
"<X c #EBB543",
"1X c #E5BA44",
"2X c #EABC45",
"3X c #E3B44B",
"4X c #EBB54B",
"5X c #E4BA4C",
"6X c #ECBB4C",
"7X c #F1BD44",
"8X c #F3B54B",
"9X c #F1BB4B",
"0X c #F4B646",
"qX c #E4B554",
"wX c #E5BC53",
"eX c #EBBC54",
"rX c #E4BA5C",
"tX c #E9B95C",
"yX c #F1BE55",
"uX c #C7A662",
"iX c #D6AF60",
"pX c #D2B960",
"aX c #D6B669",
"sX c #D2B86B",
"dX c #E5BE64",
"fX c #E5B866",
"gX c #ECC349",
"hX c #F4C349",
"jX c #EBC253",
"kX c #E9C55A",
"lX c #F5C756",
"zX c #DAC262",
"xX c #E8C361",
"cX c #EBC16F",
"vX c #F6C463",
"bX c #EBC872",
"nX c #F3CE75",
"mX c #EECA80",
/* pixels */
"                                        O O                 X                                                           ",
"                                .     O   O O               X                                                           ",
"                                  .                 . .                                                                 ",
"                                                  X                                                                     ",
"                                                  . . O O   O                                                           ",
"                                              .         O . . O                                                         ",
"                                                    O   O     O                                                         ",
"                                  O     .         O O O       .                                                         ",
"                                O ; O     .     O O O O   X                                                             ",
"                                + : O . . $     O O +   +                                                               ",
"                                    O . . . . X   + O +   X X                                                           ",
"                                  X % u u & # . X + + + +                                                               ",
"                                - d H [.[.Z 1 .   X + ; O   X .                                                         ",
"                                9 +.(.sXmXuX` # .     O O     .                                                         ",
"                      X   .     r [ y.g.tXdX%Xz $     O O O . . .                                                       ",
"                  . . o o o . . s R 8.g.3XfXfXuX6 * . O O @ . .                                                         ",
"  .             . o V G ~.` < # 4 *. .( >X3XqXbX`.9 .   X   .   X X             X   o       ; O O O O O   O X           ",
"O . X           % A *.pXbX:Xs.y > x %.| x.yXeXOXpX/.4 . o o           X         .     o     O O ; O       X X           ",
"O O           . 0 5.@.a..XzXnX).h y  .:.t.1X1XD.lX;Xw.r . . @ O + X O O O O O         X X X O   O             X         ",
"O O     X     . 0 1.=.W u.@XvX*X{.' ' | Q j.1XgXY.@XxX).e . . O   O     ; ; ; ;   @         o O         o               ",
"O O     X     . 1 <.,.;.q.m.4XtXfXfX).;.~ 0.S.T.J.7X8XOX_.l . O . .   O ; ; ; ; O O   o X   * o       X o         O     ",
"O   X     X   . 1 4.' Y ^ ^ >XvX4XyXOX}.y.~ l.C.R.R.<X4XfXuXZ 1 # o . . @ ; O O +     w q - s d * - o   X     O O   O O ",
"O     X X     . & O.o.;.9.^ x.3X8XI.5XkX$Xt.q.v.0XJ.0XlXqXkX:Xe.e 2 # # . . . . .   4 P C g +.K d N 5 X       O O O O   ",
"O     X         # B ,.U E t.Y |.lXM.gXgXoXwXv._ n.8X8X<X2XgX@XkXiX/.l 2 # # # . . = s +.c k s.c 7.7.n X   .   O O O O O ",
"    X   X       $ 7 +.e.T  ...w.N.D.gXI.<X8X8XH.m.v.Z.4X2XR.P.K.eXdX&X_.` i t t z ^.'.v b j.j.b K a * X       O O O O O ",
".     X X   X   . = D r.[ w.] [ y.N.2X0XU.E.8X0X4X>XXXA.H.P.E.Q.I.,XtXxXfXaXsXsX'.pXzXy.8.$Xj.T s 3 X X       O O O O   ",
"        X       . $ s D w.w.+.w.[ a.+X<XE.E.E.U.2X@X@XV.C.J.G.G.L.L.H.,X>X+X X|.xX-X@X0.8.A.0.R 3 X X   X     O O O O   ",
".       X X     . . < k w.w.D w.] { >.n.0XE.P.P.Y.5XjXjX2X2XG.G.M.k.z.Z.C.,X3X3X$XD.N.0.8.f.y.j o       X X       O     ",
"  .   X         . < h s.}.f.a.).s.o.Y >.v.H.I.gX1X1X5X5X6X6X8X0XhXgX7X2X<X<XH.,X5XjXp.y.:.s.=.t .                       ",
".         X   X < 5.sXpX-X-XwX*X%X).} W W >.c.XX@X1X1X2X2X4X4XeX1X@X1X<X,XH.<X6XgX3X0.Y  .4.O.> O                       ",
"O     X     . . p [.cXwX@XI.8X3XqX*X{.h.%.] :.a.|.XX<X0X9X5X5XwXkXwXwXeX8X4X<X4X9Xx.>.U O.5.M & . O O O       X         ",
"O             . m `.%X3X9XU.0X<X8XqXfX*X_.s.#.' W ) i.m.v.V.$X-X#X+X+X3X4X,X<X4XoXW s.` J I = O   O   O                 ",
"O O           . M G s.|.jX7XL.R.7X2X,XqX=X&X{.{.>.>.>.( W Q t.a.g.}.+XqXeX9X6X@Xi.;...3.P q X     O                     ",
"      O       X , 2.^.E XXhXL.R.K.K.I.2XjXtXtX;X*X&X%X X].].}.}.+XqXtXqXoX4X3Xn.;.| ` C q *                             ",
"O     O       . . F ~.U i.C.I.hX7X2X2X2X2X5XwXqXqX;XrX-X;X$X$X-XtX3X4X3X5XeXXXt.:.{ z 6 .     O                         ",
"                . 6 G /.{ t.oX,X<X1XY.I.I.,XwXjX3X3X5X5X5XwXwXjXjXV.oXeXeX|.y.{ e.C 1 . .   O O                         ",
"                X . u 3.@.o.h.p.OX1X2X9X1XY.Y.Y.gX1X1X1X1X1X1X1X2XY.gXwXg.Q  .e.G 8 . . . @ ; O                         ",
"        O         . = f 2.e.@.:.b.Z.3X6XgXgXY.K.W.T.T.1X1X2X6X1XY.1XV.f.| ..3.2.u % . O O   O O                         ",
"                  o . % V 2.O.@.Y ( i.v.V.1X1XgXY.Y.Y.1X2X6X6X,XN.p.9.Q [ ~.L p o .     O   O O                         ",
"          O O     . . . > m 6.4.-.| } | t.u.l.N.B.B.B.B.Z.v.l.i.9.~ Y ..~.J u o       O                                 ",
".             O     .   . $ p P <.-.-.:.' Y ! / / / / ) ( ( W } E  .e.3.C 7 o         O                                 ",
"            O         O   . & 7 S O.&.4.#.#.X.X.E E } | o.:.#.#./.3.O.V 7 .   @   O O                                   ",
"          O   O O         . . . & 8 B P 5.4.*.+.*.$.*.*.3.&.&.<.1.B 7 = .     O O             X                         ",
"  .           O O   O   X O .   . # % < q M A H P H O.J S S A m 7 % . . . o       O                                     ",
"            O   O O           O o . . . . . , 5 , - > = $ $ . . .   . . X     O                                         ",
"              O       O O     .     .     .     X .   X .     .   O O O       .       .                                 ",
"                    O O O O O   +           X @           X X   +   O       .   .       O O O O                         ",
"                O                       +       O O               + + +           . . . O   O O                         ",
"                                                                                                                        ",
"                                                                                                                        ",
"                                                                                                                        ",
"                                                                                                                        ",
"                                                                                                                        ",
"                                                                                                                        ",
"                                                                                                                        ",
"                                                                                                                        ",
"                                                                                                                        ",
"                                                                                                                        ",
"                                                                                                                        ",
"                                                                                                                        "
};
